<svg xmlns="http://www.w3.org/2000/svg" width="1200" height="675" viewBox="0 0 1200 675">
	<rect width="1200" height="675" fill="#fff"/>
	<text x="600" y="56" text-anchor="middle" font-size="30" font-family="Segoe UI, Arial, sans-serif" fill="#222">図5. CellData パターンカテゴリ</text>
	<circle cx="600" cy="340" r="95" fill="#eef6ff" stroke="#7aa" stroke-width="2"/>
	<text x="600" y="347" text-anchor="middle" font-size="24" font-family="Segoe UI, Arial, sans-serif" fill="#222">CellData</text>

	<g font-family="Segoe UI, Arial, sans-serif" font-size="20" fill="#222">
		<rect x="150" y="130" width="190" height="60" rx="10" fill="#f0fff0" stroke="#7a7"/><text x="245" y="168" text-anchor="middle">Gun</text>
		<rect x="910" y="130" width="190" height="60" rx="10" fill="#fff4e8" stroke="#c96"/><text x="1005" y="168" text-anchor="middle">Oscillator</text>
		<rect x="120" y="500" width="220" height="60" rx="10" fill="#eef3ff" stroke="#77a"/><text x="230" y="538" text-anchor="middle">Spaceship</text>
		<rect x="430" y="560" width="220" height="60" rx="10" fill="#fff7ef" stroke="#c98"/><text x="540" y="598" text-anchor="middle">Methuselah</text>
		<rect x="760" y="560" width="220" height="60" rx="10" fill="#f4f4f4" stroke="#888"/><text x="870" y="598" text-anchor="middle">Puffer / Engine</text>
	</g>

	<line x1="515" y1="285" x2="330" y2="170" stroke="#666" stroke-width="2"/>
	<line x1="685" y1="285" x2="910" y2="170" stroke="#666" stroke-width="2"/>
	<line x1="515" y1="405" x2="340" y2="530" stroke="#666" stroke-width="2"/>
	<line x1="600" y1="435" x2="540" y2="560" stroke="#666" stroke-width="2"/>
	<line x1="680" y1="405" x2="760" y2="560" stroke="#666" stroke-width="2"/>
</svg>